HIERARCHY
ROOT Hips
{
    OFFSET 0.000000 0.000000 0.000000
    CHANNELS 6 Xposition Yposition Zposition Zrotation Xrotation Yrotation
    JOINT Spine
    {
        OFFSET -0.000000 7.305679 0.000000
        CHANNELS 3 Zrotation Xrotation Yrotation
        JOINT Spine1
        {
            OFFSET -0.000000 20.356625 0.000000
            CHANNELS 3 Zrotation Xrotation Yrotation
            JOINT Neck
            {
                OFFSET -0.000000 22.138498 0.000000
                CHANNELS 3 Zrotation Xrotation Yrotation
                JOINT Head
                {
                    OFFSET -0.000000 13.809516 1.781873
                    CHANNELS 3 Zrotation Xrotation Yrotation
                    End Site
                    {
                        OFFSET -0.000000 17.818729 0.000000
                    }
                }
            }
            JOINT LeftShoulder
            {
                OFFSET 3.599131 17.989975 0.023592
                CHANNELS 3 Zrotation Xrotation Yrotation
                JOINT LeftArm
                {
                    OFFSET 12.560995 0.000000 0.000000
                    CHANNELS 3 Zrotation Xrotation Yrotation
                    JOINT LeftForeArm
                    {
                        OFFSET 22.903347 0.000000 0.000000
                        CHANNELS 3 Zrotation Xrotation Yrotation
                        JOINT LeftHand
                        {
                            OFFSET 21.865294 0.000000 0.000000
                            CHANNELS 3 Zrotation Xrotation Yrotation
                            JOINT LeftHandThumb1
                            {
                                OFFSET 1.853706 -2.106484 2.949078
                                CHANNELS 3 Zrotation Xrotation Yrotation
                                JOINT LeftHandThumb2
                                {
                                    OFFSET 2.049154 0.000000 1.336405
                                    CHANNELS 3 Zrotation Xrotation Yrotation
                                    JOINT LeftHandThumb3
                                    {
                                        OFFSET 2.672809 0.000000 0.000000
                                        CHANNELS 3 Zrotation Xrotation Yrotation
                                        End Site
                                        {
                                            OFFSET 2.381303 0.000000 0.000000
                                        }
                                    }
                                }
                            }
                            JOINT LeftHandIndex1
                            {
                                OFFSET 7.583345 0.000000 2.949078
                                CHANNELS 3 Zrotation Xrotation Yrotation
                                JOINT LeftHandIndex2
                                {
                                    OFFSET 4.454682 0.000000 0.000000
                                    CHANNELS 3 Zrotation Xrotation Yrotation
                                    JOINT LeftHandIndex3
                                    {
                                        OFFSET 2.227341 0.000000 0.000000
                                        CHANNELS 3 Zrotation Xrotation Yrotation
                                        End Site
                                        {
                                            OFFSET 1.984419 0.000000 0.000000
                                        }
                                    }
                                }
                            }
                            JOINT LeftHandMiddle1
                            {
                                OFFSET 7.583345 0.000000 0.977409
                                CHANNELS 3 Zrotation Xrotation Yrotation
                                JOINT LeftHandMiddle2
                                {
                                    OFFSET 4.900151 0.000000 0.000000
                                    CHANNELS 3 Zrotation Xrotation Yrotation
                                    JOINT LeftHandMiddle3
                                    {
                                        OFFSET 2.672809 0.000000 0.000000
                                        CHANNELS 3 Zrotation Xrotation Yrotation
                                        End Site
                                        {
                                            OFFSET 2.381303 0.000000 0.000000
                                        }
                                    }
                                }
                            }
                            JOINT LeftHandRing1
                            {
                                OFFSET 7.162047 0.000000 -0.977409
                                CHANNELS 3 Zrotation Xrotation Yrotation
                                JOINT LeftHandRing2
                                {
                                    OFFSET 4.454682 0.000000 0.000000
                                    CHANNELS 3 Zrotation Xrotation Yrotation
                                    JOINT LeftHandRing3
                                    {
                                        OFFSET 2.227341 0.000000 0.000000
                                        CHANNELS 3 Zrotation Xrotation Yrotation
                                        End Site
                                        {
                                            OFFSET 1.984419 0.000000 0.000000
                                        }
                                    }
                                }
                            }
                            JOINT LeftHandPinky1
                            {
                                OFFSET 6.740750 0.000000 -2.949078
                                CHANNELS 3 Zrotation Xrotation Yrotation
                                JOINT LeftHandPinky2
                                {
                                    OFFSET 3.563746 0.000000 0.000000
                                    CHANNELS 3 Zrotation Xrotation Yrotation
                                    JOINT LeftHandPinky3
                                    {
                                        OFFSET 1.781873 0.000000 0.000000
                                        CHANNELS 3 Zrotation Xrotation Yrotation
                                        End Site
                                        {
                                            OFFSET 1.587536 0.000000 0.000000
                                        }
                                    }
                                }
                            }
                        }
                    }
                }
            }
            JOINT RightShoulder
            {
                OFFSET -3.506995 17.989975 0.023592
                CHANNELS 3 Zrotation Xrotation Yrotation
                JOINT RightArm
                {
                    OFFSET -12.560995 0.000000 0.000000
                    CHANNELS 3 Zrotation Xrotation Yrotation
                    JOINT RightForeArm
                    {
                        OFFSET -22.903347 0.000000 0.000000
                        CHANNELS 3 Zrotation Xrotation Yrotation
                        JOINT RightHand
                        {
                            OFFSET -21.865294 0.000000 0.000000
                            CHANNELS 3 Zrotation Xrotation Yrotation
                            JOINT RightHandThumb1
                            {
                                OFFSET -1.853706 -2.106484 2.949078
                                CHANNELS 3 Zrotation Xrotation Yrotation
                                JOINT RightHandThumb2
                                {
                                    OFFSET -2.049154 0.000000 1.336405
                                    CHANNELS 3 Zrotation Xrotation Yrotation
                                    JOINT RightHandThumb3
                                    {
                                        OFFSET -2.672809 0.000000 0.000000
                                        CHANNELS 3 Zrotation Xrotation Yrotation
                                        End Site
                                        {
                                            OFFSET -2.381303 0.000000 0.000000
                                        }
                                    }
                                }
                            }
                            JOINT RightHandIndex1
                            {
                                OFFSET -7.583345 0.000000 2.949078
                                CHANNELS 3 Zrotation Xrotation Yrotation
                                JOINT RightHandIndex2
                                {
                                    OFFSET -4.454682 0.000000 0.000000
                                    CHANNELS 3 Zrotation Xrotation Yrotation
                                    JOINT RightHandIndex3
                                    {
                                        OFFSET -2.227341 0.000000 0.000000
                                        CHANNELS 3 Zrotation Xrotation Yrotation
                                        End Site
                                        {
                                            OFFSET -1.984419 0.000000 0.000000
                                        }
                                    }
                                }
                            }
                            JOINT RightHandMiddle1
                            {
                                OFFSET -7.583345 0.000000 0.977409
                                CHANNELS 3 Zrotation Xrotation Yrotation
                                JOINT RightHandMiddle2
                                {
                                    OFFSET -4.900151 0.000000 0.000000
                                    CHANNELS 3 Zrotation Xrotation Yrotation
                                    JOINT RightHandMiddle3
                                    {
                                        OFFSET -2.672809 0.000000 0.000000
                                        CHANNELS 3 Zrotation Xrotation Yrotation
                                        End Site
                                        {
                                            OFFSET -2.381303 0.000000 0.000000
                                        }
                                    }
                                }
                            }
                            JOINT RightHandRing1
                            {
                                OFFSET -7.162047 0.000000 -0.977409
                                CHANNELS 3 Zrotation Xrotation Yrotation
                                JOINT RightHandRing2
                                {
                                    OFFSET -4.454682 0.000000 0.000000
                                    CHANNELS 3 Zrotation Xrotation Yrotation
                                    JOINT RightHandRing3
                                    {
                                        OFFSET -2.227341 0.000000 0.000000
                                        CHANNELS 3 Zrotation Xrotation Yrotation
                                        End Site
                                        {
                                            OFFSET -1.984419 0.000000 0.000000
                                        }
                                    }
                                }
                            }
                            JOINT RightHandPinky1
                            {
                                OFFSET -6.740750 0.000000 -2.949078
                                CHANNELS 3 Zrotation Xrotation Yrotation
                                JOINT RightHandPinky2
                                {
                                    OFFSET -3.563746 0.000000 0.000000
                                    CHANNELS 3 Zrotation Xrotation Yrotation
                                    JOINT RightHandPinky3
                                    {
                                        OFFSET -1.781873 0.000000 0.000000
                                        CHANNELS 3 Zrotation Xrotation Yrotation
                                        End Site
                                        {
                                            OFFSET -1.587536 0.000000 0.000000
                                        }
                                    }
                                }
                            }
                        }
                    }
                }
            }
        }
    }
    JOINT LeftUpLeg
    {
        OFFSET 8.909365 0.000000 0.000000
        CHANNELS 3 Zrotation Xrotation Yrotation
        JOINT LeftLeg
        {
            OFFSET -0.000000 -38.765560 0.000000
            CHANNELS 3 Zrotation Xrotation Yrotation
            JOINT LeftFoot
            {
                OFFSET -0.000000 -35.244961 0.000000
                CHANNELS 3 Zrotation Xrotation Yrotation
                JOINT LeftToeBase
                {
                    OFFSET -0.000000 -5.791087 13.364048
                    CHANNELS 3 Zrotation Xrotation Yrotation
                    End Site
                    {
                        OFFSET -0.000000 0.000000 3.563746
                    }
                }
            }
        }
    }
    JOINT RightUpLeg
    {
        OFFSET -8.909365 0.000000 0.000000
        CHANNELS 3 Zrotation Xrotation Yrotation
        JOINT RightLeg
        {
            OFFSET -0.000000 -38.765560 0.000000
            CHANNELS 3 Zrotation Xrotation Yrotation
            JOINT RightFoot
            {
                OFFSET -0.000000 -35.244961 0.000000
                CHANNELS 3 Zrotation Xrotation Yrotation
                JOINT RightToeBase
                {
                    OFFSET -0.000000 -5.791087 13.364048
                    CHANNELS 3 Zrotation Xrotation Yrotation
                    End Site
                    {
                        OFFSET -0.000000 0.000000 3.563746
                    }
                }
            }
        }
    }
}
MOTION
Frames:    4
Frame Time:    0.008333
-4.528944    80.552788    126.948250    -2.964578    -2.135489    4.703804    -3.974426    8.073015    -6.318940    1.487187    5.520060    -2.264766    9.001085    0.231708    -0.327087    8.946429    -20.343906    1.346360    1.481610    -9.261065    -24.151371    -70.151619    40.432468    -20.698723    73.259430    -13.761680    -59.330433    12.258575    -12.079794    8.188670    -8.145679    3.676634    -6.219822    0.000000    0.000000    0.000000    0.000000    0.000000    0.000000    -18.189274    5.172522    -15.343273    -37.772968    0.000000    0.000000    -18.886486    0.000000    0.000000    -25.655748    2.137843    -6.973246    -51.493595    0.000000    0.000000    -25.746798    0.000000    0.000000    -32.602421    -1.921919    0.933055    -65.214226    0.000000    0.000000    -32.607113    0.000000    0.000000    -39.148628    -7.033660    8.554111    -79.350639    0.000000    0.000000    -39.675320    0.000000    0.000000    -5.355060    -12.331734    5.977023    64.393402    60.276646    23.168993    -91.758156    -29.265253    46.881569    -7.537646    -40.127457    9.609479    2.211980    -3.267185    6.711735    0.000000    0.000000    0.000000    0.000000    0.000000    0.000000    18.788153    0.167122    0.491238    37.577740    0.000000    -0.000000    18.788868    0.000000    -0.000000    20.251822    -0.086238    -0.179978    40.504055    0.000000    -0.000000    20.252026    0.000000    -0.000000    21.712440    -0.356642    -0.844516    43.430370    0.000000    -0.000000    21.715181    0.000000    -0.000000    23.214005    -0.652845    -1.521782    46.445358    0.000000    -0.000000    23.222675    0.000000    -0.000000    8.736877    -11.732903    8.057511    -3.042857    34.275841    4.914097    -3.121775    -12.797200    -15.997372    0.198625    -0.899109    -0.611262    -5.978891    -36.171036    -2.837420    175.721634    41.393028    -166.246796    11.866073    -25.055490    12.526924    -0.585479    -1.657946    0.762620    
-4.548450    81.276817    126.922539    -3.297417    -2.170360    4.616956    -3.745045    8.282134    -6.325988    1.595701    5.356987    -2.267251    9.021707    -0.082710    -0.282031    8.866054    -20.140249    1.349552    1.763425    -10.107069    -24.738308    -68.388550    39.277561    -22.644480    72.855225    -14.108229    -60.350986    11.092339    -11.522453    8.232541    -8.345256    3.600829    -6.612033    0.000000    0.000000    0.000000    0.000000    0.000000    0.000000    -18.431932    5.524330    -16.111677    -38.428825    0.000000    0.000000    -19.214411    0.000000    0.000000    -26.025711    2.300462    -7.342561    -52.258759    0.000000    0.000000    -26.129385    0.000000    0.000000    -33.040688    -2.010921    0.925223    -66.088699    0.000000    0.000000    -33.044350    0.000000    0.000000    -39.590816    -7.429013    8.885979    -80.337715    0.000000    0.000000    -40.168861    0.000000    0.000000    -5.712963    -12.815155    6.317535    61.205887    59.212784    26.697807    -91.324112    -30.666182    47.272476    -5.658215    -38.937012    8.827859    2.392230    -3.555994    7.305822    0.000000    0.000000    0.000000    0.000000    0.000000    0.000000    19.239388    0.210328    0.602623    38.480988    0.000000    -0.000000    19.240492    0.000000    -0.000000    20.790491    -0.059501    -0.098550    41.581215    0.000000    -0.000000    20.790607    0.000000    -0.000000    22.338205    -0.348191    -0.792175    44.681446    0.000000    -0.000000    22.340723    0.000000    -0.000000    23.929115    -0.665089    -1.498426    47.875618    0.000000    -0.000000    23.937811    0.000000    -0.000000    8.591121    -10.959517    7.380728    -2.662598    32.312122    5.459359    -3.020352    -10.930239    -15.799273    0.190411    -1.401661    -0.658762    -5.033683    -36.685711    -2.577475    175.343613    44.920383    -166.064499    11.861791    -24.803577    12.330269    -0.597385    -1.625621    0.784762    
-4.577359    82.028648    126.887451    -3.651760    -2.189256    4.532194    -3.496958    8.490605    -6.308292    1.713872    5.203635    -2.261096    9.039208    -0.421941    -0.256407    8.781701    -19.949484    1.331354    2.044188    -10.869173    -25.297651    -66.623917    38.126541    -24.577900    72.180161    -14.380424    -61.195137    9.858747    -10.999179    8.248167    -8.535789    3.523369    -6.994594    0.000000    0.000000    0.000000    0.000000    0.000000    0.000000    -18.605715    5.836990    -16.809116    -38.937702    0.000000    0.000000    -19.468853    0.000000    0.000000    -26.362410    2.428802    -7.655383    -52.952820    0.000000    0.000000    -26.476406    0.000000    0.000000    -33.479919    -2.134024    0.956575    -66.967926    0.000000    0.000000    -33.483963    0.000000    0.000000    -40.067852    -7.861499    9.236322    -81.407745    0.000000    0.000000    -40.703873    0.000000    0.000000    -6.058014    -13.220480    6.616549    58.080982    58.144272    30.180449    -90.828964    -31.773808    47.444138    -3.848836    -37.735374    7.958401    2.570791    -3.824616    7.868512    0.000000    0.000000    0.000000    0.000000    0.000000    0.000000    19.586847    0.247885    0.696611    39.176708    0.000000    -0.000000    19.588352    0.000000    -0.000000    21.234636    -0.033465    -0.023792    42.469406    0.000000    -0.000000    21.234697    0.000000    -0.000000    22.878782    -0.335391    -0.735819    45.762093    0.000000    -0.000000    22.881050    0.000000    -0.000000    24.568777    -0.667676    -1.460084    49.154572    0.000000    -0.000000    24.577286    0.000000    -0.000000    8.456298    -10.228912    6.723012    -2.225540    30.354702    6.032725    -2.859052    -8.880227    -15.603696    0.181441    -1.999296    -0.718817    -4.058959    -37.104637    -2.172959    174.853500    48.605812    -165.774246    11.756598    -24.611368    11.927851    -0.614142    -1.577325    0.816174    
-4.614195    82.796700    126.841949    -4.025451    -2.185616    4.441016    -3.231984    8.690830    -6.264688    1.837438    5.059181    -2.245601    9.059088    -0.782875    -0.248810    8.688387    -19.775877    1.294219    2.323453    -11.543061    -25.833544    -64.828545    37.068554    -26.505043    71.331299    -14.611727    -61.773228    8.592042    -10.508318    8.252599    -8.728446    3.447716    -7.379052    0.000000    0.000000    0.000000    0.000000    0.000000    0.000000    -18.739588    6.118474    -17.441462    -39.357971    0.000000    0.000000    -19.678984    0.000000    0.000000    -26.679741    2.531186    -7.922055    -53.604221    0.000000    0.000000    -26.802116    0.000000    0.000000    -33.919651    -2.280198    1.013222    -67.850487    0.000000    0.000000    -33.925243    0.000000    0.000000    -40.565567    -8.315281    9.588814    -82.528458    0.000000    0.000000    -41.264225    0.000000    0.000000    -6.391554    -13.552580    6.884508    55.001087    57.088631    33.613354    -90.338165    -32.602501    47.356483    -2.074369    -36.610126    7.052183    2.740924    -4.085244    8.413500    0.000000    0.000000    0.000000    0.000000    0.000000    0.000000    19.868406    0.285105    0.788900    39.740742    0.000000    -0.000000    19.870369    0.000000    -0.000000    21.614502    -0.005385    0.052850    43.229084    0.000000    -0.000000    21.614542    0.000000    -0.000000    23.356741    -0.318143    -0.674019    46.717434    0.000000    -0.000000    23.358715    0.000000    -0.000000    25.147566    -0.663312    -1.412647    50.311489    0.000000    -0.000000    25.155745    0.000000    -0.000000    8.343877    -9.559507    6.124315    -1.751752    28.433615    6.662759    -2.625806    -6.656069    -15.454282    0.172214    -2.674045    -0.791088    -3.058930    -37.430527    -1.612787    174.145142    52.502304    -165.274765    11.524358    -24.388905    11.268895    -0.636247    -1.518258    0.857124    
